<svg version="1.1" viewBox="0.0 0.0 1000.0 1000.0" fill="none" stroke="none" stroke-linecap="square" stroke-miterlimit="10" xmlns:xlink="http://www.w3.org/1999/xlink" xmlns="http://www.w3.org/2000/svg"><clipPath id="p.0"><path d="m0 0l1000.0 0l0 1000.0l-1000.0 0l0 -1000.0z" clip-rule="nonzero"/></clipPath><g clip-path="url(#p.0)"><path fill="#663635" fill-opacity="0.0" d="m0 0l1000.0 0l0 1000.0l-1000.0 0z" fill-rule="evenodd"/><path fill="#122620" d="m46.582676 500.0l0 0c0 -250.41547 203.00186 -453.41733 453.41733 -453.41733l0 0c120.25372 0 235.58221 47.77062 320.61444 132.80287c85.03229 85.03224 132.80286 200.3607 132.80286 320.61444l0 0c0 250.41547 -203.00183 453.4173 -453.4173 453.4173l0 0c-250.41547 0 -453.41733 -203.00183 -453.41733 -453.4173z" fill-rule="evenodd"/><path stroke="#122620" stroke-width="1.0" stroke-linejoin="round" stroke-linecap="butt" d="m46.582676 500.0l0 0c0 -250.41547 203.00186 -453.41733 453.41733 -453.41733l0 0c120.25372 0 235.58221 47.77062 320.61444 132.80287c85.03229 85.03224 132.80286 200.3607 132.80286 320.61444l0 0c0 250.41547 -203.00183 453.4173 -453.4173 453.4173l0 0c-250.41547 0 -453.41733 -203.00183 -453.41733 -453.4173z" fill-rule="evenodd"/><path fill="#663635" fill-opacity="0.0" d="m46.582676 500.0l0 0c0 -250.41548 203.00186 -453.41733 453.41733 -453.41733l0 0c120.25372 0 235.58221 47.77062 320.61444 132.80286c85.03229 85.03226 132.80286 200.36072 132.80286 320.61447l0 0c0 250.41547 -203.00183 453.4173 -453.4173 453.4173l0 0c-250.41547 0 -453.41733 -203.00183 -453.41733 -453.4173z" fill-rule="evenodd"/><path stroke="#F4EBD0" stroke-width="24.0" stroke-linejoin="round" stroke-linecap="butt" d="m46.582676 500.0l0 0c0 -250.41548 203.00186 -453.41733 453.41733 -453.41733l0 0c120.25372 0 235.58221 47.77062 320.61444 132.80286c85.03229 85.03226 132.80286 200.36072 132.80286 320.61447l0 0c0 250.41547 -203.00183 453.4173 -453.4173 453.4173l0 0c-250.41547 0 -453.41733 -203.00183 -453.41733 -453.4173z" fill-rule="evenodd"/><path fill="#F4EBD0" d="m475.49295 711.66364l249.85428 0l0 21.13556l-249.85428 0z" fill-rule="evenodd"/><path stroke="#F4EBD0" stroke-width="1.0" stroke-linejoin="round" stroke-linecap="butt" d="m475.49295 711.66364l249.85428 0l0 21.13556l-249.85428 0z" fill-rule="evenodd"/><path fill="#F4EBD0" d="m558.7777 834.45276l83.28473 0l0 21.13556l-83.28473 0z" fill-rule="evenodd"/><path stroke="#F4EBD0" stroke-width="1.0" stroke-linejoin="round" stroke-linecap="butt" d="m558.7777 834.45276l83.28473 0l0 21.13556l-83.28473 0z" fill-rule="evenodd"/><path fill="#F4EBD0" d="m517.1353 773.0593l166.56952 0l0 21.13556l-166.56952 0z" fill-rule="evenodd"/><path stroke="#F4EBD0" stroke-width="1.0" stroke-linejoin="round" stroke-linecap="butt" d="m517.1353 773.0593l166.56952 0l0 21.13556l-166.56952 0z" fill-rule="evenodd"/><path fill="#F4EBD0" d="m610.98785 579.99567l0 143.2486l-21.13556 0l0 -143.2486z" fill-rule="evenodd"/><path stroke="#F4EBD0" stroke-width="1.0" stroke-linejoin="round" stroke-linecap="butt" d="m610.98785 579.99567l0 143.2486l-21.13556 0l0 -143.2486z" fill-rule="evenodd"/><path fill="#F4EBD0" d="m123.17858 376.9254l221.491 0l0 36.91516l-221.491 0z" fill-rule="evenodd"/><path stroke="#F4EBD0" stroke-width="1.0" stroke-linejoin="round" stroke-linecap="butt" d="m123.17858 376.9254l221.491 0l0 36.91516l-221.491 0z" fill-rule="evenodd"/><path fill="#F4EBD0" d="m123.17858 469.22006l221.491 0l0 36.91516l-221.491 0z" fill-rule="evenodd"/><path stroke="#F4EBD0" stroke-width="1.0" stroke-linejoin="round" stroke-linecap="butt" d="m123.17858 469.22006l221.491 0l0 36.91516l-221.491 0z" fill-rule="evenodd"/><path fill="#F4EBD0" d="m123.17416 561.51276l221.491 0l0 36.91516l-221.491 0z" fill-rule="evenodd"/><path stroke="#F4EBD0" stroke-width="1.0" stroke-linejoin="round" stroke-linecap="butt" d="m123.17416 561.51276l221.491 0l0 36.91516l-221.491 0z" fill-rule="evenodd"/><path fill="#F4EBD0" d="m654.7319 376.91656l221.49103 0l0 36.91516l-221.49103 0z" fill-rule="evenodd"/><path stroke="#F4EBD0" stroke-width="1.0" stroke-linejoin="round" stroke-linecap="butt" d="m654.7319 376.91656l221.49103 0l0 36.91516l-221.49103 0z" fill-rule="evenodd"/><path fill="#F4EBD0" d="m654.7319 469.2112l221.49103 0l0 36.91516l-221.49103 0z" fill-rule="evenodd"/><path stroke="#F4EBD0" stroke-width="1.0" stroke-linejoin="round" stroke-linecap="butt" d="m654.7319 469.2112l221.49103 0l0 36.91516l-221.49103 0z" fill-rule="evenodd"/><path fill="#F4EBD0" d="m654.7274 561.5039l221.49103 0l0 36.91516l-221.49103 0z" fill-rule="evenodd"/><path stroke="#F4EBD0" stroke-width="1.0" stroke-linejoin="round" stroke-linecap="butt" d="m654.7274 561.5039l221.49103 0l0 36.91516l-221.49103 0z" fill-rule="evenodd"/><path fill="#F4EBD0" d="m388.95587 376.92984l221.48029 0l0 36.91339l-221.48029 0z" fill-rule="evenodd"/><path stroke="#F4EBD0" stroke-width="1.0" stroke-linejoin="round" stroke-linecap="butt" d="m388.95587 376.92984l221.48029 0l0 36.91339l-221.48029 0z" fill-rule="evenodd"/><path fill="#F4EBD0" d="m425.87155 376.93436l0 221.48032l-36.91339 0l0 -221.48032z" fill-rule="evenodd"/><path stroke="#F4EBD0" stroke-width="1.0" stroke-linejoin="round" stroke-linecap="butt" d="m425.87155 376.93436l0 221.48032l-36.91339 0l0 -221.48032z" fill-rule="evenodd"/><path fill="#F4EBD0" d="m388.95508 561.51935l147.6535 0l0 36.91339l-147.6535 0z" fill-rule="evenodd"/><path stroke="#F4EBD0" stroke-width="1.0" stroke-linejoin="round" stroke-linecap="butt" d="m388.95508 561.51935l147.6535 0l0 36.91339l-147.6535 0z" fill-rule="evenodd"/><path fill="#F4EBD0" d="m536.3681 536.8646l74.614136 43.118103l-74.614136 43.118103z" fill-rule="evenodd"/><path stroke="#F4EBD0" stroke-width="1.0" stroke-linejoin="round" stroke-linecap="butt" d="m536.3681 536.8646l74.614136 43.118103l-74.614136 43.118103z" fill-rule="evenodd"/><path fill="#F4EBD0" d="m388.95508 561.51935l147.65356 0l0 18.456665l-147.65356 0z" fill-rule="evenodd"/><path stroke="#F4EBD0" stroke-width="1.0" stroke-linejoin="round" stroke-linecap="butt" d="m388.95508 561.51935l147.65356 0l0 18.456665l-147.65356 0z" fill-rule="evenodd"/><path fill="#F4EBD0" d="m610.9834 57.487206l0 356.37796l-21.13385 0l0 -356.37796z" fill-rule="evenodd"/><path stroke="#F4EBD0" stroke-width="1.0" stroke-linejoin="round" stroke-linecap="butt" d="m610.9834 57.487206l0 356.37796l-21.13385 0l0 -356.37796z" fill-rule="evenodd"/></g></svg>